# xmcd
#
# Track frame offsets: 
#        150
#        15035
#        34550
#        50020
#        68065
#        86821
#        104062
#        122173
#        142137
#        157858
#        172878
#        188927
#        207223
#        224418
#        242398
#
# Disc length: 3467 seconds
#
# Revision: 0
# Processed by: cddbd v1.5.2PL0 Copyright (c) Steve Scherf et al.
# Submitted via: ExactAudioCopy v0.95b4
#
DISCID=cb0d890f
DTITLE=Макарский Антон - О Тебе...
DYEAR=2007
DGENRE=Pop
TTITLE0=Вечная Любовь
TTITLE1=Любоваться
TTITLE2=Но Она Его Любила
TTITLE3=Нет Тебя Дома
TTITLE4=Кто Ты Такая
TTITLE5=Когда Уходишь Ты
TTITLE6=Неправда
TTITLE7=Не Жалей Меня
TTITLE8=Птицы (дуэт с Викторией Морозовой)
TTITLE9=Истроия
TTITLE10=Пора
TTITLE11=Мама, Про Рай - Правда
TTITLE12=О Тебе (дуэт с Викторией Морозовой)
TTITLE13=Неправда (vs. NikoTin remix)
TTITLE14=Жаль, что Тебя Здесь Нет (памяти Александра Куликова)(& солис
TTITLE14=ты мбюзикла Metro: А.Голубев, Д.Варенкин, Д.Бурлаков)
EXTD=
EXTT0=
EXTT1=
EXTT2=
EXTT3=
EXTT4=
EXTT5=
EXTT6=
EXTT7=
EXTT8=
EXTT9=
EXTT10=
EXTT11=
EXTT12=
EXTT13=
EXTT14=
PLAYORDER=
